PathFileType	4	(X/Y/Z)	C:/Users/opensim2020/Desktop/walking_exp_matlab/subject01_walking08_straight_04.trc																																																																																																																															
DataRate	CameraRate	NumFrames	NumMarkers	Units	OrigDataRate	OrigDataStartFrame	OrigNumFrames																																																																																																																											
100	100	5	43	mm	100	3883	256																																																																																																																											
Frame#	Time	LFHD			RFHD			LBHD			RBHD			C7			T10			CLAV			STRN			RBAK			LSHO			LUPA			LELB			LFRM			LWRA			LWRB			LFIN			RSHO			RUPA			RELB			RFRM			RWRA			RWRB			RFIN			LASI			RASI			LPSI			RPSI			LTHI			LKNE			LTIB			LANK			LHEE			LTOE			RTHI			RKNE			RTIB			RANK			RHEE			RTOE			*39			*40			*41			*42		
		X1	Y1	Z1	X2	Y2	Z2	X3	Y3	Z3	X4	Y4	Z4	X5	Y5	Z5	X6	Y6	Z6	X7	Y7	Z7	X8	Y8	Z8	X9	Y9	Z9	X10	Y10	Z10	X11	Y11	Z11	X12	Y12	Z12	X13	Y13	Z13	X14	Y14	Z14	X15	Y15	Z15	X16	Y16	Z16	X17	Y17	Z17	X18	Y18	Z18	X19	Y19	Z19	X20	Y20	Z20	X21	Y21	Z21	X22	Y22	Z22	X23	Y23	Z23	X24	Y24	Z24	X25	Y25	Z25	X26	Y26	Z26	X27	Y27	Z27	X28	Y28	Z28	X29	Y29	Z29	X30	Y30	Z30	X31	Y31	Z31	X32	Y32	Z32	X33	Y33	Z33	X34	Y34	Z34	X35	Y35	Z35	X36	Y36	Z36	X37	Y37	Z37	X38	Y38	Z38	X39	Y39	Z39	X40	Y40	Z40	X41	Y41	Z41	X42	Y42	Z42	X43	Y43	Z43
																																																																																																																																		
225	2.24	546.49719	1662.10535	-1498.93225	557.07916	1662.49475	-1384.59644	425.0892	1633.39148	-1496.28857	432.51468	1633.5625	-1375.11243	362.99603	1432.65247	-1456.3219	330.3147	1137.24207	-1450.3075	506.45041	1364.64636	-1456.71069	551.68671	1211.44861	-1468.16504	312.4548	1233.64673	-1379.66492	447.33075	1399.04797	-1617.80408	422.11096	1216.01428	-1705.39612	415.82416	1062.06995	-1708.58752	479.65836	966.12341	-1734.77673	589.90344	880.32294	-1719.56445	536.9881	858.83838	-1740.73352	603.27161	806.87292	-1753.1665	445.15707	1388.70947	-1304.22937	389.91516	1186.70178	-1205.64587	389.74942	1061.12048	-1204.7146	426.1192	944.80804	-1177.57336	514.56287	835.18231	-1200.18335	472.09338	832.05011	-1160.67273	515.41876	758.24713	-1164.26758	497.82007	930.20801	-1566.46643	513.83545	936.04431	-1350.05469	316.18399	940.32251	-1503.30103	326.81659	946.8363	-1358.62329	512.71747	603.01611	-1635.90662	521.83124	470.10962	-1628.9386	386.0498	346.41937	-1627.86755	241.34499	186.23492	-1572.41077	195.94412	182.77072	-1510.71997	325.78433	69.35635	-1595.70398	486.6926	601.55121	-1300.71436	509.25034	445.80032	-1332.90808	462.47809	274.05969	-1328.39087	440.42758	71.63612	-1384.06213	390.24835	34.30453	-1433.70715	581.03613	33.40163	-1388.82556	549.75812	1697.61694	-1406.75049	-1973.07568	1023.96576	3101.99854	-2012.51563	1022.0047	3140.61646	NaN	NaN	NaN
226	2.25	553.83099	1662.08984	-1498.28345	564.26257	1662.4165	-1383.98706	432.19714	1633.92004	-1495.73413	439.52127	1634.08044	-1374.61548	369.40768	1433.09375	-1455.68665	336.31815	1137.72424	-1449.55566	512.78278	1364.98767	-1456.1991	557.8623	1211.78003	-1467.55286	318.6319	1234.13806	-1378.9502	453.50687	1399.38074	-1617.24683	427.75964	1216.3197	-1704.63855	420.69037	1062.37817	-1707.35657	482.98672	965.52026	-1733.52576	591.63837	877.67322	-1718.10254	538.42072	857.2038	-1739.47766	603.72394	803.91107	-1751.57532	451.34308	1389.06482	-1303.70728	396.86157	1187.00562	-1204.72522	397.33377	1061.40906	-1203.40454	434.91553	945.36462	-1176.37329	524.56104	836.75897	-1199.15503	482.38947	833.26648	-1159.65295	526.30444	759.72833	-1163.15137	503.82773	931.00415	-1565.42603	519.63989	936.16675	-1349.00806	322.06467	940.84631	-1502.66809	332.54663	947.13043	-1357.88098	522.85516	604.823	-1635.48157	533.63763	472.15179	-1628.33191	400.42746	345.52158	-1627.64221	259.71356	181.60822	-1572.42163	214.05357	176.10646	-1510.7207	348.63782	68.62766	-1596.63879	489.72058	601.2937	-1300.41296	510.91672	445.45569	-1332.51257	463.2356	274.01077	-1328.14417	440.4306	71.63391	-1384.1283	390.24536	34.34438	-1433.82202	581.16016	33.27539	-1389.05603	557.04657	1697.49634	-1406.14612	-1973.0249	1023.82483	3102.04297	-2012.61633	1022.20319	3140.63477	NaN	NaN	NaN
227	2.26	560.98804	1662.04883	-1497.73657	571.42212	1662.37378	-1383.39429	439.35831	1634.43213	-1495.27954	446.66382	1634.49585	-1374.08337	375.85922	1433.51819	-1455.10339	342.3909	1138.18066	-1448.76233	519.03406	1365.20007	-1455.64661	564.02472	1212.00635	-1466.94812	324.80084	1234.60583	-1378.3324	459.77261	1399.63867	-1616.74072	433.41656	1216.58704	-1703.96545	425.565	1062.73083	-1706.21533	486.29944	965.03296	-1732.35522	593.37958	875.11847	-1716.745	539.80341	855.6283	-1738.34131	604.19086	801.11298	-1750.07678	457.83539	1389.51111	-1303.07776	403.76382	1187.30933	-1203.8678	404.73615	1061.6228	-1202.53052	443.52863	946.08954	-1175.28296	534.50311	838.39258	-1198.15332	492.35349	834.36084	-1158.46436	537.23096	761.52179	-1162.18213	509.72617	931.67834	-1564.43774	525.24933	936.03394	-1348.02588	327.87985	941.34497	-1502.10596	338.23718	947.52881	-1357.3429	533.03748	606.76636	-1635.02295	545.23798	474.26038	-1627.64331	415.23254	344.07712	-1627.46375	278.60336	176.44777	-1572.45386	233.02182	168.88937	-1510.75745	371.88596	67.46592	-1597.95447	492.88452	601.19861	-1299.96936	512.72845	445.0694	-1332.05176	464.13889	274.05634	-1327.9436	440.50064	71.65569	-1384.10449	390.26468	34.4048	-1433.8042	580.82025	33.09031	-1388.94275	564.461	1697.52295	-1405.5354	-1973.10193	1023.47974	3101.99731	-2012.65283	1022.16791	3140.80078	NaN	NaN	NaN
228	2.27	568.1593	1662.03931	-1497.24609	578.47308	1662.31311	-1382.95667	446.4201	1634.86401	-1494.85864	453.61737	1634.88831	-1373.67249	382.29312	1434.06909	-1454.64111	348.44534	1138.62402	-1447.89941	525.35352	1365.49023	-1455.19031	570.19623	1212.25195	-1466.40784	330.97546	1235.03381	-1377.68201	466.04794	1399.92688	-1616.28394	439.07773	1216.82446	-1703.32202	430.46237	1063.06018	-1705.13428	489.60059	964.5473	-1731.28064	595.05682	872.75525	-1715.61157	541.18988	854.19574	-1737.33093	604.61499	798.26196	-1748.71924	464.16013	1389.67566	-1302.66565	410.47739	1187.57495	-1203.10425	412.54593	1061.76709	-1201.54114	452.32144	946.56769	-1174.16467	544.60217	840.13989	-1197.12268	502.27985	835.5708	-1157.44482	548.04462	763.12128	-1161.27173	515.4704	932.14545	-1563.49915	530.90912	935.97974	-1347.19385	333.74707	941.83337	-1501.51526	343.99084	947.784	-1356.69336	543.04187	608.69116	-1634.52222	556.69531	476.3353	-1626.92151	430.16293	342.29681	-1627.19409	297.99545	170.78966	-1572.55566	252.62643	160.89514	-1510.75562	395.37799	66.30315	-1599.61487	495.6474	600.94019	-1299.61987	514.45215	444.60687	-1331.58191	465.24557	273.91013	-1327.86707	440.53003	71.63034	-1384.16626	390.26691	34.44966	-1433.84851	580.8656	33.07839	-1388.86646	571.7536	1697.5415	-1405.00745	-1973.16809	1023.35266	3101.88745	-2012.63586	1022.18201	3140.7251	NaN	NaN	NaN
229	2.28	575.24359	1662.00232	-1496.90625	585.53058	1662.29944	-1382.54517	453.43698	1635.20764	-1494.57104	460.53397	1635.24927	-1373.38171	388.75256	1434.44214	-1454.16077	354.50568	1138.99609	-1447.08264	531.74408	1365.74158	-1454.82178	576.33795	1212.43933	-1465.88	337.11041	1235.49219	-1377.03467	472.2933	1400.15576	-1615.87622	444.79617	1216.99634	-1702.73218	435.31235	1063.42456	-1704.22131	492.91107	964.06946	-1730.26196	596.74432	870.47046	-1714.66284	542.58722	852.8028	-1736.35449	604.99579	795.58099	-1747.43494	470.24701	1390.11365	-1302.25757	417.21176	1187.77637	-1202.42444	419.62134	1062.06323	-1200.43713	460.90115	947.29272	-1173.1925	554.26373	841.75366	-1196.3468	512.47699	836.56689	-1156.59302	558.70605	764.79541	-1160.47656	521.10321	932.46338	-1562.59961	536.58276	935.76764	-1346.38	339.66583	942.34943	-1500.98328	349.66016	948.00409	-1356.09363	553.04559	610.65887	-1633.97363	568.05865	478.24927	-1626.19543	445.09497	340.19763	-1626.9668	317.87604	164.67726	-1572.802	272.97342	152.41161	-1510.81091	419.35361	64.82231	-1601.56396	498.67877	600.68921	-1299.28418	516.45367	444.3493	-1331.33105	466.565	273.83014	-1327.81482	440.64038	71.56563	-1384.19055	390.31995	34.52604	-1433.85266	580.88464	33.07911	-1388.88684	578.93195	1697.49487	-1404.66846	-1973.16321	1023.63593	3101.89502	-2012.55688	1022.00238	3140.73242	NaN	NaN	NaN
